# xmcd
#
# Track frame offsets: 
#        150
#        18764
#        31214
#        50990
#        68632
#        92375
#        116239
#        130145
#        145448
#        158699
#        176692
#        191617
#
# Disc length: 2902 seconds
#
# Revision: 0
# Processed by: cddbd v1.5.2PL0 Copyright (c) Steve Scherf et al.
# Submitted via: ExactAudioCopy v1.0b1
#
DISCID=a10b540c
DTITLE=Deep Purple  - Come Taste The Band - 35th Anniversary Edition, 
DTITLE=CD 2
DYEAR=1900
DGENRE=
TTITLE0=Comin' Home
TTITLE1=Lady Luck
TTITLE2=Gettin' Tighter
TTITLE3=Dealer
TTITLE4=I Need Love
TTITLE5=You Keep On Moving
TTITLE6=Love Child
TTITLE7=This Time Around
TTITLE8=Owed To 'G'
TTITLE9=Drifter
TTITLE10=Same In L.A. (Bonus track)
TTITLE11=Bolin\\Paice Jam (Bonus track)
EXTD=
EXTT0=
EXTT1=
EXTT2=
EXTT3=
EXTT4=
EXTT5=
EXTT6=
EXTT7=
EXTT8=
EXTT9=
EXTT10=
EXTT11=
PLAYORDER=
